<?xml version="1.0" encoding="UTF-8"?>
<svg xmlns="http://www.w3.org/2000/svg" viewBox="0 0 717.49 672.07">
  <defs>
    <style>
      .cls-1 {
        fill: #fff;
      }

      .cls-2 {
        fill: #2e9237;
      }

      .cls-3 {
        fill: #2f9237;
      }
    </style>
  </defs>
  <g id="_Слой_1" data-name="Слой_1">
    <path class="cls-2" d="M311.9,130.22l1.25,7.71c.17,1.04.69,1.98,1.5,2.65,2.75,2.31,7.3,5.46,13.62,7.37,7.06,2.13,13.09,1.74,16.41,1.28,3.19-.22,9.43-1.08,15.9-5.13,4.93-3.09,8.03-6.8,9.74-9.23,1.32-1.46,4.85-5.72,5.64-12.31.63-5.24-.77-9.41-1.71-11.57-.22-.51-.33-1.05-.33-1.61-.03-2.76-.58-8.79-4.88-14.52-3.93-5.23-8.9-7.41-11.02-8.2-3.93-1.77-11.51-4.53-21.28-4.1-7.45.33-13.32,2.38-16.97,4.01-.14.07-.27.14-.41.21-5.4,2-11.62,4.72-18.24,8.48-6.88,3.9-12.58,8.01-17.17,11.75-.12.08-.31.18-.52.35-3.48,2.7-9.39,8.05-13.6,16.73-3.29,6.77-4.28,12.97-4.59,17.02-.02.23,0,.29.02.85.16,6.53-.22,10.38-.31,12.9-.35,9.9,3.08,18.71,4.73,22.96.34.87.64,1.59.84,2.06,1.44,4,3.84,9.35,7.93,14.94,4.79,6.56,10.02,10.89,13.8,13.55.17.22.4.49.73.75.27.22.57.41.88.56,4.14,3.09,9.37,6.49,15.7,9.59,7.43,3.64,14.3,5.86,19.9,7.25,2.68,1.38,6.98,3.18,12.54,3.87,6.19.76,11.26-.18,14.31-1,3.87.29,9.44.28,15.92-1.22,6.55-1.52,11.62-4,14.98-5.99.35-.13.71-.26,1.06-.4,5.7-1.71,12.37-4.19,19.52-7.84,8.63-4.4,15.54-9.28,20.81-13.57.2-.1.42-.24.66-.43.21-.16.4-.34.57-.54,3.92-2.3,9.23-5.99,14.4-11.68,5.79-6.37,9.13-12.75,11.02-17.17.25-.29.55-.71.78-1.26.08-.19.14-.39.19-.6,2.88-6.72,5.8-14.95,8.01-24.53,1.85-8.01,2.82-15.34,3.31-21.71.06-.24.11-.55.12-.91,0-.31-.01-.61-.07-.92-.16-7.9-.93-17.24-2.92-27.57-1.74-9.04-4.07-17-6.45-23.73-.05-.28-.15-.65-.33-1.05-.15-.33-.35-.65-.58-.93-3.55-6.93-8.72-15.39-16.19-24.06-5.57-6.48-11.17-11.6-16.12-15.59-.2-.24-.5-.56-.93-.85-.35-.24-.73-.42-1.14-.55-14.8-8.62-26.92-13.25-34.81-15.78-12.05-3.88-26.96-6.97-30.33-7.67-2.08-.43-3.81-.77-5-1-6.04-.79-12.62-1.39-19.67-1.67-8.96-.35-17.22-.13-24.66.42-.24-.02-.53-.03-.85,0-.17.02-.34.05-.51.09-12.39.7-26.73,2.34-42.43,5.71-18.86,4.05-35.02,9.58-48.15,15.04-.34.13-.69.25-1.03.38-11.89,4.14-25.39,9.76-39.71,17.47-10.73,5.78-20.17,11.78-28.34,17.57-.08.04-.2.1-.33.19-11.29,7.04-24.09,16.15-37.27,27.85-11.28,10.01-20.6,19.93-28.2,28.97-11.45,12.25-24.24,27.88-36.41,47.18-9.35,14.82-16.52,28.94-22.05,41.54-5.85,13.21-11.91,29.74-16.41,49.23-4.14,17.91-5.97,34.1-6.67,47.69-.38,20.35.3,43.07,2.82,67.69,1.94,18.94,4.7,36.49,7.89,52.52.05.2.1.38.15.58,4.88,14.42,12.6,32.75,25.03,52.28,12.96,20.35,26.93,35.56,38.3,46.26.1.11.2.21.3.32,12.88,15,25.75,29.99,38.63,44.99,1.07,1.24,1.35,2.97.74,4.49l-20.37,50.68c-.45,1.12-.41,2.38.09,3.48,3.35,7.37,9.28,17.94,19.47,28.24,11.09,11.19,22.62,17.39,30.25,20.73.84.37,1.77.45,2.67.25,9.91-2.19,19.82-4.37,29.73-6.56,2.15-.47,3.62-2.47,3.42-4.67l-.99-11.2c-.13-1.49-1.02-2.82-2.35-3.51l-22.83-11.82c-2.09-1.08-2.95-3.63-1.95-5.76l13.33-28.27c1-2.12,3.5-3.08,5.67-2.17l73.7,31.03c.25.08.5.16.76.24,22.44,5.12,42.57,7.72,59.35,9.01,16.57,1.27,39.62,2.02,66.92-.38,13.67-1.21,30.59-2.77,52.3-8.08,0,0,7.58-1.85,45.98-13.65,1.66-.51,3.47,0,4.6,1.31l31.68,36.41c.52.6,1.18,1.05,1.94,1.29,8.91,2.86,21.56,5.87,36.93,6.16,16.72.33,30.42-2.67,39.67-5.45.13-.05.25-.09.39-.13,6.65-2.63,16.92-7.91,25.19-18.39h0c-5.62-11.42-3.22-6.53-8.84-17.95l-48.05.5c-1.17.01-2.29-.44-3.12-1.26l-24.62-24.21c-2.24-2.2-1.52-5.99,1.39-7.17,10.74-4.35,23.3-10.6,36.32-19.65,24.16-16.8,39.55-36.06,48.57-49.53.11-.14.21-.27.31-.4,18.14-20.6,39.63-48.91,58.8-85.44,16.99-32.38,27.55-62.41,34.27-86.88.07-.2.14-.38.21-.57,5.87-13.02,13.02-33.81,12.69-59.72-.11-9.01-1.11-17.17-2.49-24.29-.34-1.75-1.72-3.11-3.47-3.43-20.9-3.88-44.32-7.06-69.93-8.69-37.23-2.37-70.6-.93-98.97,2.05-28.67,3.02-65.77,6.2-112.3,20-27.05,8.02-63.74,21.44-104.53,44.61-2.1,1.19-2.86,3.88-1.65,5.97,3.24,5.62,6.87,11.44,10.93,17.36,10.59,15.43,21.77,28.13,32.25,38.43,2.05,2.01,1.63,5.41-.85,6.86-6.52,3.83-14.85,8.04-24.87,11.63-3.39,1.21-19.5,6.84-42.3,8.46-27.2,1.93-48.7-3.31-59.23-5.77-33.63-7.87-56.25-26.25-69.23-36.79-27.98-22.74-44.22-48.2-53.12-65.23-.11-.29-.22-.55-.33-.84-4.39-15.79-11.63-50.33-.9-91.87,9.67-37.46,29.26-62.44,40-74.35,13.34-15.99,38.36-41.68,77.43-60.51,29.58-14.25,56.62-19.47,75.16-21.51.14-.02.27-.04.41-.07,6.78-1.54,38.18-7.84,68.51,11.33,22.94,14.49,32.35,35.38,35.38,43.07,1.85,4.29,7.67,19.22,2.56,37.43-5.45,19.46-19.67,29.45-23.79,32.1-.22.14-.4.28-.59.46-3.62,3.38-20.19,17.89-44.85,16.66-20.08-1-33.4-11.82-37.63-15.61-.2-.22-.38-.42-.58-.64-3.13-4.23-6.27-8.45-9.4-12.68.18-8.87.34-16.64.52-25.5l4.53-5.61c2.38-2.95,7.13-1.69,7.74,2.05Z"/>
  </g>
  <g id="_Слой_2" data-name="Слой_2">
    <circle id="ease" class="cls-1" cx="537.47" cy="359.33" r="48.76"/>
    <circle id="meybe" class="cls-3" cx="531.63" cy="355.6" r="25.64"/>
    <circle id="okko" class="cls-1" cx="529.06" cy="352.52" r="10.8"/>
  </g>
</svg>