<?xml version="1.0" standalone="no"?>
<!DOCTYPE svg PUBLIC "-//W3C//DTD SVG 20010904//EN"
 "http://www.w3.org/TR/2001/REC-SVG-20010904/DTD/svg10.dtd">
<svg version="1.0" xmlns="http://www.w3.org/2000/svg"
 width="512.000000pt" height="512.000000pt" viewBox="0 0 512.000000 512.000000"
 preserveAspectRatio="xMidYMid meet">

<g transform="translate(0.000000,512.000000) scale(0.100000,-0.100000)"
fill="#000000" stroke="none">
<path d="M1617 5094 c-227 -41 -442 -185 -567 -381 -28 -43 -50 -83 -50 -89 0
-7 26 -4 78 10 76 20 97 20 1417 24 1340 3 1448 1 1573 -31 36 -10 52 -11 52
-3 0 25 -103 169 -164 231 -127 126 -287 209 -461 240 -124 21 -1758 21 -1878
-1z"/>
<path d="M1167 4344 c-229 -41 -448 -190 -572 -388 -26 -42 -45 -79 -42 -82 3
-3 43 3 89 13 79 17 176 18 1918 18 1742 0 1839 -1 1918 -18 46 -10 86 -16 89
-13 11 11 -92 160 -157 226 -128 129 -289 214 -465 245 -126 22 -2657 21
-2778 -1z"/>
<path d="M700 3590 c-350 -74 -614 -347 -675 -695 -23 -131 -22 -2039 0 -2170
62 -355 345 -638 700 -700 76 -13 314 -15 1835 -15 1518 0 1759 2 1835 15 356
62 638 344 700 700 22 131 23 2039 0 2170 -62 355 -336 631 -694 699 -74 14
-277 16 -1850 15 -1666 0 -1771 -1 -1851 -19z m2098 -604 c366 -80 670 -313
836 -643 88 -176 119 -317 119 -538 0 -157 -2 -179 -31 -287 -56 -214 -161
-398 -317 -553 -326 -327 -794 -436 -1235 -288 -338 113 -631 407 -745 747
-48 143 -58 211 -58 386 0 175 10 243 58 386 136 405 511 727 925 794 41 6 82
13 90 15 37 9 292 -5 358 -19z"/>
<path d="M2397 2695 c-371 -71 -658 -362 -723 -737 -67 -384 137 -781 491
-953 581 -283 1255 113 1292 760 16 287 -120 584 -344 754 -89 68 -228 136
-328 162 -106 27 -284 34 -388 14z m633 -393 c70 -35 102 -131 66 -200 -8 -15
-140 -151 -293 -303 -296 -295 -302 -299 -381 -284 -31 5 -67 36 -210 178 -96
95 -180 184 -188 199 -8 15 -14 45 -14 68 0 98 80 163 178 145 30 -5 60 -30
152 -121 l116 -114 209 211 c116 116 224 217 240 225 41 18 84 17 125 -4z"/>
</g>
</svg>
