<?xml version="1.0" standalone="no"?>
<!DOCTYPE svg PUBLIC "-//W3C//DTD SVG 20010904//EN"
 "http://www.w3.org/TR/2001/REC-SVG-20010904/DTD/svg10.dtd">
<svg version="1.0" xmlns="http://www.w3.org/2000/svg"
 width="512.000000pt" height="512.000000pt" viewBox="0 0 512.000000 512.000000"
 preserveAspectRatio="xMidYMid meet">

<g transform="translate(0.000000,512.000000) scale(0.100000,-0.100000)"
fill="#000000" stroke="none">
<path d="M796 5024 c-350 -63 -639 -356 -701 -709 -23 -132 -23 -2479 0 -2610
59 -335 310 -605 650 -698 l80 -22 1285 0 c1230 0 1288 1 1355 19 280 76 501
264 604 515 71 170 66 64 66 1491 l0 1285 -22 80 c-93 341 -362 591 -698 650
-126 22 -2497 21 -2619 -1z m2636 -506 c91 -45 147 -103 191 -196 l32 -67 0
-1245 0 -1245 -32 -67 c-41 -88 -113 -160 -201 -201 l-67 -32 -1245 0 -1245 0
-65 31 c-95 46 -153 101 -197 192 l-38 76 0 1245 0 1246 32 67 c17 37 50 87
72 111 44 48 135 101 197 116 23 5 546 9 1265 8 l1225 -2 76 -37z"/>
<path d="M2055 3961 c-75 -19 -131 -67 -164 -141 -19 -42 -21 -65 -21 -307 l0
-263 -262 0 c-243 0 -266 -2 -308 -21 -95 -43 -144 -117 -144 -219 0 -102 49
-176 144 -219 42 -19 65 -21 308 -21 l262 0 0 -262 c0 -243 2 -266 21 -308 84
-187 336 -196 432 -16 21 39 22 55 25 313 l3 272 272 3 c258 3 274 4 313 25
58 31 101 84 120 148 34 119 -20 232 -136 284 -42 19 -65 21 -307 21 l-263 0
0 263 c0 242 -2 265 -21 307 -38 85 -106 135 -195 144 -27 3 -62 1 -79 -3z"/>
<path d="M4722 3237 c-44 -14 -115 -78 -138 -124 -18 -36 -19 -85 -24 -1003
l-5 -965 -27 -80 c-40 -116 -92 -199 -183 -290 -91 -91 -174 -143 -290 -183
l-80 -27 -965 -5 c-1089 -6 -1002 1 -1079 -86 -58 -66 -74 -142 -49 -228 17
-58 99 -138 158 -155 35 -9 262 -11 1010 -8 862 3 972 5 1033 20 250 62 435
163 603 331 168 168 269 353 331 603 15 61 17 171 20 1033 3 727 1 976 -8
1008 -17 61 -87 136 -146 156 -52 18 -112 19 -161 3z"/>
</g>
</svg>
